<svg width="135" height="138" viewBox="0 0 135 138" fill="none" xmlns="http://www.w3.org/2000/svg">
<path d="M132 3H3V88.5H131.5L112.5 46.5L132 3Z" fill="#FFF57F"/>
<path d="M3 135V88.5M3 88.5V3H132L112.5 46.5L131.5 88.5H3Z" stroke="#4C4948" stroke-width="5" stroke-linecap="round" stroke-linejoin="round"/>
<path d="M44.8047 27.6514C44.8047 27.4229 44.7695 27.2178 44.6992 27.0361C44.6348 26.8486 44.5117 26.6787 44.3301 26.5264C44.1484 26.3682 43.8936 26.2129 43.5654 26.0605C43.2373 25.9082 42.8125 25.75 42.291 25.5859C41.7109 25.3984 41.1602 25.1875 40.6387 24.9531C40.123 24.7188 39.666 24.4463 39.2676 24.1357C38.875 23.8193 38.5645 23.4531 38.3359 23.0371C38.1133 22.6211 38.002 22.1377 38.002 21.5869C38.002 21.0537 38.1191 20.5703 38.3535 20.1367C38.5879 19.6973 38.916 19.3223 39.3379 19.0117C39.7598 18.6953 40.2578 18.4521 40.832 18.2822C41.4121 18.1123 42.0479 18.0273 42.7393 18.0273C43.6826 18.0273 44.5059 18.1973 45.209 18.5371C45.9121 18.877 46.457 19.3428 46.8438 19.9346C47.2363 20.5264 47.4326 21.2031 47.4326 21.9648H44.8135C44.8135 21.5898 44.7344 21.2617 44.5762 20.9805C44.4238 20.6934 44.1895 20.4678 43.873 20.3037C43.5625 20.1396 43.1699 20.0576 42.6953 20.0576C42.2383 20.0576 41.8574 20.1279 41.5527 20.2686C41.248 20.4033 41.0195 20.5879 40.8672 20.8223C40.7148 21.0508 40.6387 21.3086 40.6387 21.5957C40.6387 21.8125 40.6914 22.0088 40.7969 22.1846C40.9082 22.3604 41.0723 22.5244 41.2891 22.6768C41.5059 22.8291 41.7725 22.9727 42.0889 23.1074C42.4053 23.2422 42.7715 23.374 43.1875 23.5029C43.8848 23.7139 44.4971 23.9512 45.0244 24.2148C45.5576 24.4785 46.0029 24.7744 46.3604 25.1025C46.7178 25.4307 46.9873 25.8027 47.1689 26.2188C47.3506 26.6348 47.4414 27.1064 47.4414 27.6338C47.4414 28.1904 47.333 28.6885 47.1162 29.1279C46.8994 29.5674 46.5859 29.9395 46.1758 30.2441C45.7656 30.5488 45.2764 30.7803 44.708 30.9385C44.1396 31.0967 43.5039 31.1758 42.8008 31.1758C42.168 31.1758 41.5439 31.0938 40.9287 30.9297C40.3135 30.7598 39.7539 30.5049 39.25 30.165C38.752 29.8252 38.3535 29.3916 38.0547 28.8643C37.7559 28.3369 37.6064 27.7129 37.6064 26.9922H40.252C40.252 27.3906 40.3135 27.7275 40.4365 28.0029C40.5596 28.2783 40.7324 28.501 40.9551 28.6709C41.1836 28.8408 41.4531 28.9639 41.7637 29.04C42.0801 29.1162 42.4258 29.1543 42.8008 29.1543C43.2578 29.1543 43.6328 29.0898 43.9258 28.9609C44.2246 28.832 44.4443 28.6533 44.585 28.4248C44.7314 28.1963 44.8047 27.9385 44.8047 27.6514ZM58.5561 18.2031V31H55.9281V18.2031H58.5561ZM62.4936 18.2031V20.2686H52.0521V18.2031H62.4936ZM76.1834 28.9434V31H69.3719V28.9434H76.1834ZM70.2332 18.2031V31H67.5965V18.2031H70.2332ZM75.2957 23.415V25.4189H69.3719V23.415H75.2957ZM76.1746 18.2031V20.2686H69.3719V18.2031H76.1746ZM86.3049 26.4385H83.0441V24.3818H86.3049C86.8088 24.3818 87.2189 24.2998 87.5354 24.1357C87.8518 23.9658 88.0832 23.7314 88.2297 23.4326C88.3762 23.1338 88.4494 22.7969 88.4494 22.4219C88.4494 22.041 88.3762 21.6865 88.2297 21.3584C88.0832 21.0303 87.8518 20.7666 87.5354 20.5674C87.2189 20.3682 86.8088 20.2686 86.3049 20.2686H83.9582V31H81.3215V18.2031H86.3049C87.3068 18.2031 88.1652 18.3848 88.8801 18.748C89.6008 19.1055 90.1516 19.6006 90.5324 20.2334C90.9133 20.8662 91.1037 21.5898 91.1037 22.4043C91.1037 23.2305 90.9133 23.9453 90.5324 24.5488C90.1516 25.1523 89.6008 25.6182 88.8801 25.9463C88.1652 26.2744 87.3068 26.4385 86.3049 26.4385Z" fill="#4C4948"/>
<path d="M61.3125 51.9375V57.8438C61.3125 60.4062 61.0391 62.6172 60.4922 64.4766C59.9453 66.3203 59.1562 67.8359 58.125 69.0234C57.1094 70.1953 55.8984 71.0625 54.4922 71.625C53.0859 72.1875 51.5234 72.4688 49.8047 72.4688C48.4297 72.4688 47.1484 72.2969 45.9609 71.9531C44.7734 71.5938 43.7031 71.0391 42.75 70.2891C41.8125 69.5391 41 68.5938 40.3125 67.4531C39.6406 66.2969 39.125 64.9219 38.7656 63.3281C38.4062 61.7344 38.2266 59.9062 38.2266 57.8438V51.9375C38.2266 49.375 38.5 47.1797 39.0469 45.3516C39.6094 43.5078 40.3984 42 41.4141 40.8281C42.4453 39.6562 43.6641 38.7969 45.0703 38.25C46.4766 37.6875 48.0391 37.4062 49.7578 37.4062C51.1328 37.4062 52.4062 37.5859 53.5781 37.9453C54.7656 38.2891 55.8359 38.8281 56.7891 39.5625C57.7422 40.2969 58.5547 41.2422 59.2266 42.3984C59.8984 43.5391 60.4141 44.9062 60.7734 46.5C61.1328 48.0781 61.3125 49.8906 61.3125 51.9375ZM54.5391 58.7344V51.0234C54.5391 49.7891 54.4688 48.7109 54.3281 47.7891C54.2031 46.8672 54.0078 46.0859 53.7422 45.4453C53.4766 44.7891 53.1484 44.2578 52.7578 43.8516C52.3672 43.4453 51.9219 43.1484 51.4219 42.9609C50.9219 42.7734 50.3672 42.6797 49.7578 42.6797C48.9922 42.6797 48.3125 42.8281 47.7188 43.125C47.1406 43.4219 46.6484 43.8984 46.2422 44.5547C45.8359 45.1953 45.5234 46.0547 45.3047 47.1328C45.1016 48.1953 45 49.4922 45 51.0234V58.7344C45 59.9688 45.0625 61.0547 45.1875 61.9922C45.3281 62.9297 45.5312 63.7344 45.7969 64.4062C46.0781 65.0625 46.4062 65.6016 46.7812 66.0234C47.1719 66.4297 47.6172 66.7266 48.1172 66.9141C48.6328 67.1016 49.1953 67.1953 49.8047 67.1953C50.5547 67.1953 51.2188 67.0469 51.7969 66.75C52.3906 66.4375 52.8906 65.9531 53.2969 65.2969C53.7188 64.625 54.0312 63.75 54.2344 62.6719C54.4375 61.5938 54.5391 60.2812 54.5391 58.7344ZM89.25 66.7266V72H65.9062V67.5L76.9453 55.6641C78.0547 54.4297 78.9297 53.3438 79.5703 52.4062C80.2109 51.4531 80.6719 50.6016 80.9531 49.8516C81.25 49.0859 81.3984 48.3594 81.3984 47.6719C81.3984 46.6406 81.2266 45.7578 80.8828 45.0234C80.5391 44.2734 80.0312 43.6953 79.3594 43.2891C78.7031 42.8828 77.8906 42.6797 76.9219 42.6797C75.8906 42.6797 75 42.9297 74.25 43.4297C73.5156 43.9297 72.9531 44.625 72.5625 45.5156C72.1875 46.4062 72 47.4141 72 48.5391H65.2266C65.2266 46.5078 65.7109 44.6484 66.6797 42.9609C67.6484 41.2578 69.0156 39.9062 70.7812 38.9062C72.5469 37.8906 74.6406 37.3828 77.0625 37.3828C79.4531 37.3828 81.4688 37.7734 83.1094 38.5547C84.7656 39.3203 86.0156 40.4297 86.8594 41.8828C87.7188 43.3203 88.1484 45.0391 88.1484 47.0391C88.1484 48.1641 87.9688 49.2656 87.6094 50.3438C87.25 51.4062 86.7344 52.4688 86.0625 53.5312C85.4062 54.5781 84.6094 55.6406 83.6719 56.7188C82.7344 57.7969 81.6953 58.9141 80.5547 60.0703L74.625 66.7266H89.25Z" fill="#4C4948"/>
</svg>
