<svg width="130" height="131" viewBox="0 0 130 131" fill="none" xmlns="http://www.w3.org/2000/svg">
<path d="M47.7998 4.27547L59.0267 17.2841C62.7048 21.5459 69.2612 21.6925 73.126 17.5994L84.9231 5.10547C89.1223 0.658307 96.5802 3.94465 96.1317 10.0446L94.8719 27.1817C94.4591 32.796 98.9915 37.5358 104.619 37.3743L121.795 36.8816C127.909 36.7062 130.859 44.3036 126.228 48.2998L113.22 59.5267C108.958 63.2048 108.811 69.7611 112.904 73.626L125.398 85.4231C129.845 89.6222 126.559 97.0802 120.459 96.6317L103.322 95.3718C97.7077 94.9591 92.968 99.4915 93.1294 105.119L93.6221 122.295C93.7975 128.409 86.2001 131.359 82.2039 126.728L70.977 113.72C67.299 109.458 60.7426 109.311 56.8777 113.404L45.0806 125.898C40.8815 130.345 33.4235 127.059 33.872 120.959L35.1319 103.822C35.5446 98.2076 31.0122 93.4679 25.385 93.6294L8.20872 94.1221C2.09486 94.2974 -0.854889 86.7001 3.7755 82.7039L16.7842 71.477C21.046 67.7989 21.1925 61.2425 17.0994 57.3777L4.60549 45.5806C0.158331 41.3814 3.44468 33.9235 9.54458 34.372L26.6817 35.6318C32.2961 36.0446 37.0358 31.5122 36.8744 25.885L36.3817 8.70869C36.2063 2.59483 43.8036 -0.354915 47.7998 4.27547Z" fill="#FFF57F" stroke="#4C4948" stroke-width="3"/>
</svg>
